<svg id="visual" viewBox="0 0 1920 1080" width="1920" height="1080" xmlns="http://www.w3.org/2000/svg" xmlns:xlink="http://www.w3.org/1999/xlink" version="1.1"><rect x="0" y="0" width="1920" height="1080" fill="#536cbc"></rect><path d="M0 488L45.7 502.7C91.3 517.3 182.7 546.7 274.2 537.7C365.7 528.7 457.3 481.3 548.8 491C640.3 500.7 731.7 567.3 823 582.3C914.3 597.3 1005.7 560.7 1097 522.5C1188.3 484.3 1279.7 444.7 1371.2 451.7C1462.7 458.7 1554.3 512.3 1645.8 521.3C1737.3 530.3 1828.7 494.7 1874.3 476.8L1920 459L1920 0L1874.3 0C1828.7 0 1737.3 0 1645.8 0C1554.3 0 1462.7 0 1371.2 0C1279.7 0 1188.3 0 1097 0C1005.7 0 914.3 0 823 0C731.7 0 640.3 0 548.8 0C457.3 0 365.7 0 274.2 0C182.7 0 91.3 0 45.7 0L0 0Z" fill="#f2f5f8" stroke-linecap="round" stroke-linejoin="miter"></path></svg>